<?xml version="1.0" encoding="UTF-8"?>
<svg id="Outline" xmlns="http://www.w3.org/2000/svg" viewBox="0 0 298.67 255.82">
  <defs>
    <style>
      .cls-1 {
        fill: #333;
      }
    </style>
  </defs>
  <path class="cls-1" d="M298.67,127.8h0c-.1-11.22-4.63-21.95-12.59-29.87L194.56,6.2c-8.32-8.27-21.76-8.27-30.08,0-8.37,8.3-8.42,21.8-.12,30.17.04.04.08.08.12.12l70.19,69.97H21.33c-11.78,0-21.33,9.55-21.33,21.33s9.55,21.33,21.33,21.33h213.33l-70.19,70.19c-8.37,8.31-8.41,21.82-.11,30.19,8.31,8.37,21.82,8.41,30.19.11l91.52-91.73c8.01-7.96,12.54-18.78,12.59-30.08Z"/>
</svg>