<?xml version="1.0" encoding="UTF-8"?>
<svg id="Layer_1" data-name="Layer 1" xmlns="http://www.w3.org/2000/svg" viewBox="0 0 20 21.62">
  <defs>
    <style>
      .cls-1 {
        fill: #333;
      }
    </style>
  </defs>
  <path class="cls-1" d="M11,11.16l8.8-5.03c.12.39.19.79.19,1.2v6.97c0,1.43-.77,2.76-2.02,3.47l-6.02,3.44c-.3.17-.62.3-.95.39,0-3.56,0-9.3,0-10.45Z"/>
  <path class="cls-1" d="M1.26,4.44c.23-.22.49-.42.77-.58L7.84.57h0c.66-.37,1.4-.57,2.15-.57h0c.75,0,1.5.19,2.15.56l5.82,3.29c.29.16.55.36.78.58l-8.74,5L1.26,4.44ZM8.99,21.62c-.33-.09-.65-.22-.95-.39l-6.02-3.44c-1.24-.71-2.02-2.04-2.02-3.47v-6.97c0-.41.07-.82.19-1.2l8.8,5.03c0,1.15,0,6.89,0,10.45Z"/>
</svg>