<?xml version="1.0" encoding="UTF-8"?>
<svg id="Layer_1" data-name="Layer 1" xmlns="http://www.w3.org/2000/svg" viewBox="0 0 24 23.96">
  <defs>
    <style>
      .cls-1 {
        fill: #333;
      }
    </style>
  </defs>
  <path class="cls-1" d="M24,19.96c0,1.65-1.35,3-3,3,0,.55-.45,1-1,1s-1-.45-1-1h-.27c-1.07,0-2.06-.57-2.6-1.5-.28-.48-.11-1.09.36-1.37.48-.28,1.09-.11,1.37.36.18.31.51.5.87.5h2.27c.55,0,1-.45,1-1,0-.38-.27-.7-.64-.76l-3.04-.51c-1.34-.22-2.32-1.37-2.32-2.73,0-1.65,1.35-3,3-3,0-.55.45-1,1-1s1,.45,1,1h.27c1.07,0,2.06.57,2.6,1.5.28.48.11,1.09-.36,1.37-.48.28-1.09.11-1.37-.36-.18-.31-.51-.5-.87-.5h-2.27c-.55,0-1,.45-1,1,0,.38.27.7.64.76l3.04.51c1.34.22,2.32,1.37,2.32,2.73ZM23.92,7.34c-.23-.87-.58-1.71-1.04-2.49-1.37-2.35-3.6-4.06-6.22-4.78-.17-.05-.56-.07-.56-.07-.14,0-.73,0-1.2.38-.69.54-.8,1.16-.81,1.21-.04.15-.05.31-.06.46v4.83c0,1.7,1.38,3.08,3.08,3.08h4.85c.64,0,1.25-.3,1.63-.82.28-.38.43-.84.41-1.32,0-.16-.03-.33-.08-.49h0ZM14.4,22.46c-.7-1.22-.45-2.74.52-3.67-.59-.8-.93-1.78-.93-2.83,0-1.63.79-3.07,2-3.98h-2.01c-1.11,0-2-.9-2-2v-4.73c0-.93-.43-1.82-1.17-2.39-.7-.55-1.62-.75-2.48-.54C2.45,3.79-1.14,9.74.33,15.63c1.03,4.15,4.37,7.32,8.57,8.14,2.1.4,4.19.17,6.06-.55-.2-.23-.39-.48-.54-.75Z"/>
</svg>