<?xml version="1.0" encoding="UTF-8"?>
<svg id="Layer_1" data-name="Layer 1" xmlns="http://www.w3.org/2000/svg" viewBox="0 0 511.57 511.19">
  <defs>
    <style>
      .cls-1 {
        fill: #333;
      }
    </style>
  </defs>
  <path class="cls-1" d="M511.57,255.58c0-34.69-15.23-67.41-41.07-87.98,2.99-34.6-9.39-68.5-33.92-93.06-24.53-24.51-58.35-36.93-91.24-33.17-42.97-54.53-135.79-55.55-177.75-.75-68.97-8.19-135.3,56.75-126.21,125.18-54.53,42.97-55.57,135.79-.75,177.77-2.99,34.6,9.39,68.5,33.92,93.06,24.53,24.51,58.39,36.93,91.24,33.17,42.97,54.53,135.79,55.55,177.75.75,34.56,2.97,68.48-9.37,93.03-33.92,24.51-24.53,36.89-58.45,33.17-91.24,26.58-22.36,41.81-55.08,41.81-89.77v-.04ZM125.1,157.36c.2-42.84,65.3-42.84,65.5,0-.2,42.84-65.3,42.84-65.5,0ZM217.84,372.03c-10.09,15.16-30.56,19.03-45.42,9.07-15.06-10.02-19.13-30.36-9.07-45.42l131-196.5c10.02-15.03,30.33-19.16,45.42-9.07,15.06,10.02,19.13,30.36,9.07,45.42l-131,196.5ZM354.35,386.61c-42.84-.2-42.84-65.3,0-65.5,42.84.2,42.84,65.3,0,65.5Z"/>
</svg>