<?xml version="1.0" encoding="UTF-8"?>
<svg id="Layer_1" data-name="Layer 1" xmlns="http://www.w3.org/2000/svg" viewBox="0 0 479.04 512">
  <defs>
    <style>
      .cls-1 {
        fill: #333;
      }
    </style>
  </defs>
  <path class="cls-1" d="M431.52,256c0-3.92-.12-7.84-.36-11.76-.89-14.69,6.39-28.66,19.13-36.01l9.32-5.38c18.57-10.71,24.94-34.44,14.23-53.01l-25.2-43.68c-10.72-18.57-34.46-24.94-53.03-14.21l-9.12,5.27c-12.79,7.39-28.63,6.84-40.94-1.32-6.56-4.35-13.39-8.29-20.44-11.81-13.21-6.58-21.59-20.02-21.59-34.77v-10.53c0-21.43-17.37-38.81-38.81-38.81h-50.39c-21.43,0-38.81,17.37-38.81,38.81v10.53c0,14.75-8.39,28.19-21.59,34.77-7.05,3.51-13.88,7.46-20.44,11.81-12.31,8.16-28.16,8.71-40.94,1.32l-9.12-5.27c-18.57-10.73-42.31-4.37-53.03,14.21l-25.2,43.68c-10.71,18.57-4.34,42.3,14.23,53.01l9.3,5.36c12.76,7.36,20.05,21.34,19.15,36.04-.47,7.82-.47,15.66,0,23.48.89,14.7-6.4,28.68-19.15,36.04l-9.3,5.36c-18.57,10.71-24.94,34.44-14.23,53.01l25.2,43.69c10.71,18.57,34.46,24.93,53.02,14.21l9.13-5.27c12.78-7.38,28.62-6.83,40.93,1.32,6.56,4.35,13.39,8.29,20.44,11.8,13.21,6.58,21.6,20.02,21.6,34.78v10.52c0,21.43,17.37,38.81,38.81,38.81h50.39c21.43,0,38.81-17.37,38.81-38.81v-10.53c0-14.75,8.39-28.19,21.59-34.77,7.05-3.51,13.88-7.46,20.44-11.81,12.31-8.16,28.16-8.71,40.94-1.32l9.12,5.27c18.57,10.73,42.31,4.37,53.03-14.21l25.2-43.68c10.71-18.57,4.34-42.3-14.23-53.01l-9.32-5.38c-12.75-7.35-20.03-21.32-19.13-36.01.24-3.91.36-7.83.36-11.76ZM303.52,256c0,35.35-28.65,64-64,64s-64-28.65-64-64,28.65-64,64-64,64,28.65,64,64Z"/>
</svg>