<?xml version="1.0" encoding="UTF-8"?>
<svg id="Layer_1" data-name="Layer 1" xmlns="http://www.w3.org/2000/svg" viewBox="0 0 469.23 512">
  <defs>
    <style>
      .cls-1 {
        fill: #333;
      }
    </style>
  </defs>
  <path class="cls-1" d="M437.85,176.75L275.95,18.78c-14.06-14.08-34.28-20.97-53.93-18.15L75.08,20.72c-11.67,1.6-19.84,12.35-18.24,24.02,1.6,11.67,12.33,19.82,24.04,18.24l146.97-20.1c6.53-.9,13.27,1.34,18.15,6.23l161.92,157.97c22.29,22.29,24.47,57.17,6.89,82.07-4.99-9.96-11.16-19.46-19.43-27.73L235.91,103.3c-14.04-14.04-34.07-20.8-53.93-18.15l-146.97,20.1c-9.69,1.32-17.24,9.07-18.3,18.79L.39,271.58c-2.13,19.43,4.57,38.49,18.43,52.33l158.21,156.86c20.14,20.16,46.91,31.23,75.39,31.23h.36c28.63-.09,55.47-11.35,75.58-31.72l67.56-68.44c19.78-20.03,29.72-46.06,30.36-72.28l12.31-12.29c41.07-41.6,40.83-109.06-.68-150.55l-.06.02ZM106.63,213.36c-11.78,0-21.33-9.56-21.33-21.33.13-27.9,42.54-27.88,42.67,0,0,11.78-9.56,21.33-21.33,21.33Z"/>
</svg>