<?xml version="1.0" encoding="UTF-8"?>
<svg id="Layer_1" data-name="Layer 1" xmlns="http://www.w3.org/2000/svg" viewBox="0 0 24 24">
  <defs>
    <style>
      .cls-1 {
        fill: #333;
      }
    </style>
  </defs>
  <path class="cls-1" d="M8.54,1.47c-.94-.94-2.2-1.47-3.53-1.47S2.41.52,1.47,1.47C.52,2.41,0,3.66,0,5s.52,2.59,1.47,3.54l1.76,1.72c.49.48,1.13.72,1.77.72s1.28-.24,1.77-.72l1.77-1.73c.94-.94,1.47-2.2,1.47-3.53s-.52-2.59-1.47-3.54h0ZM5,6.5c-.83,0-1.5-.67-1.5-1.5s.67-1.5,1.5-1.5,1.5.67,1.5,1.5-.67,1.5-1.5,1.5ZM8.94,21c.03.16.06.33.06.5,0,1.38-1.12,2.5-2.5,2.5s-2.5-1.12-2.5-2.5c0-.17.02-.34.06-.5h4.88,0ZM4,19c-2.21,0-4-1.79-4-4v-5.11s1.84,1.8,1.84,1.8c.85.83,1.97,1.29,3.16,1.29s2.32-.46,3.16-1.28l1.78-1.75c1.32-1.32,2.05-3.08,2.05-4.95,0-.97-.2-1.9-.57-2.77,2.06.62,3.57,2.51,3.57,4.77v12H4ZM19.94,21c.03.16.06.33.06.5,0,1.38-1.12,2.5-2.5,2.5s-2.5-1.12-2.5-2.5c0-.17.02-.34.06-.5h4.89,0ZM24,11v1h-7v-6h2c2.76,0,5,2.24,5,5ZM17,14h7v1c0,2.21-1.79,4-4,4h-3v-5Z"/>
</svg>